<?xml version="1.0" encoding="UTF-8" standalone="no"?><!-- Generator: Gravit.io --><svg xmlns="http://www.w3.org/2000/svg" xmlns:xlink="http://www.w3.org/1999/xlink" style="isolation:isolate" viewBox="0 0 100 100" width="100pt" height="100pt"><defs><clipPath id="_clipPath_lVB0Ns9zgJKCYuCewIGfySkxaCbK5WY0"><rect width="100" height="100"/></clipPath></defs><g clip-path="url(#_clipPath_lVB0Ns9zgJKCYuCewIGfySkxaCbK5WY0)"><circle vector-effect="non-scaling-stroke" cx="50.47740449711684" cy="50" r="50" fill="rgb(92,225,230)"/><mask id="_mask_NvY0fJWqMborePSZNgYyuyrHIVxVh7UD"><circle vector-effect="non-scaling-stroke" cx="51" cy="18.177419354838708" r="3" fill="white" stroke="none"/></mask><circle vector-effect="non-scaling-stroke" cx="51" cy="18.177419354838708" r="3" fill="rgb(135,115,240)"/><circle vector-effect="non-scaling-stroke" cx="51" cy="18.177419354838708" r="3" fill="rgb(135,115,240)" mask="url(#_mask_NvY0fJWqMborePSZNgYyuyrHIVxVh7UD)" stroke-width="2" stroke="rgb(135,115,240)" stroke-linejoin="miter" stroke-linecap="square" stroke-miterlimit="3"/><mask id="_mask_g8D5LuSmOO2agxw2SifH2NEhqt0K2Ovq"><circle vector-effect="non-scaling-stroke" cx="43.63629756537098" cy="13.813716920209695" r="4.363702434629012" fill="white" stroke="none"/></mask><circle vector-effect="non-scaling-stroke" cx="43.63629756537098" cy="13.813716920209695" r="4.363702434629012" fill="rgb(135,115,240)"/><circle vector-effect="non-scaling-stroke" cx="43.63629756537098" cy="13.813716920209695" r="4.363702434629012" fill="rgb(135,115,240)" mask="url(#_mask_g8D5LuSmOO2agxw2SifH2NEhqt0K2Ovq)" stroke-width="2" stroke="rgb(135,115,240)" stroke-linejoin="miter" stroke-linecap="square" stroke-miterlimit="3"/><mask id="_mask_TjvDKD7njCooCjB8SPqh4l4s6aghmwHU"><circle vector-effect="non-scaling-stroke" cx="55.45287003961477" cy="7.95001448558069" r="5.863702434629005" fill="white" stroke="none"/></mask><circle vector-effect="non-scaling-stroke" cx="55.45287003961477" cy="7.95001448558069" r="5.863702434629005" fill="rgb(135,115,240)"/><circle vector-effect="non-scaling-stroke" cx="55.45287003961477" cy="7.95001448558069" r="5.863702434629005" fill="rgb(135,115,240)" mask="url(#_mask_TjvDKD7njCooCjB8SPqh4l4s6aghmwHU)" stroke-width="2" stroke="rgb(135,115,240)" stroke-linejoin="miter" stroke-linecap="square" stroke-miterlimit="3"/><mask id="_mask_lBhsaV090Wm6wdTq8yrbif9A7m5oRnKh"><path d=" M 39.963 21.177 L 61.032 21.177 C 63.774 21.177 66 23.378 66 26.089 L 66 26.089 C 66 28.799 63.774 31 61.032 31 L 59.834 31 L 59.834 46.016 L 71.998 73.274 C 73.655 76.986 71.7 80 67.635 80 L 31.365 80 C 27.3 80 25.476 77.048 27.295 73.413 L 41 46.016 L 41 31 L 39.963 31 C 37.221 31 34.995 28.799 34.995 26.089 L 34.995 26.089 C 34.995 23.378 37.221 21.177 39.963 21.177 Z " fill="white" stroke="none"/></mask><path d=" M 39.963 21.177 L 61.032 21.177 C 63.774 21.177 66 23.378 66 26.089 L 66 26.089 C 66 28.799 63.774 31 61.032 31 L 59.834 31 L 59.834 46.016 L 71.998 73.274 C 73.655 76.986 71.7 80 67.635 80 L 31.365 80 C 27.3 80 25.476 77.048 27.295 73.413 L 41 46.016 L 41 31 L 39.963 31 C 37.221 31 34.995 28.799 34.995 26.089 L 34.995 26.089 C 34.995 23.378 37.221 21.177 39.963 21.177 Z " fill="rgb(92,225,230)"/><path d=" M 39.963 21.177 L 61.032 21.177 C 63.774 21.177 66 23.378 66 26.089 L 66 26.089 C 66 28.799 63.774 31 61.032 31 L 59.834 31 L 59.834 46.016 L 71.998 73.274 C 73.655 76.986 71.7 80 67.635 80 L 31.365 80 C 27.3 80 25.476 77.048 27.295 73.413 L 41 46.016 L 41 31 L 39.963 31 C 37.221 31 34.995 28.799 34.995 26.089 L 34.995 26.089 C 34.995 23.378 37.221 21.177 39.963 21.177 Z " fill="rgb(92,225,230)" mask="url(#_mask_lBhsaV090Wm6wdTq8yrbif9A7m5oRnKh)" vector-effect="non-scaling-stroke" stroke-width="2" stroke="rgb(135,115,240)" stroke-linejoin="miter" stroke-linecap="square" stroke-miterlimit="3"/><clipPath id="_clipPath_RpjYkwXCjO8Mw2ON5iW4CVCnWft6vnUA"><path d=" M 39.963 21.177 L 61.032 21.177 C 63.774 21.177 66 23.378 66 26.089 L 66 26.089 C 66 28.799 63.774 31 61.032 31 L 59.834 31 L 59.834 46.016 L 71.998 73.274 C 73.655 76.986 71.7 80 67.635 80 L 31.365 80 C 27.3 80 25.476 77.048 27.295 73.413 L 41 46.016 L 41 31 L 39.963 31 C 37.221 31 34.995 28.799 34.995 26.089 L 34.995 26.089 C 34.995 23.378 37.221 21.177 39.963 21.177 Z " fill="rgb(92,225,230)"/><path d=" M 39.963 21.177 L 61.032 21.177 C 63.774 21.177 66 23.378 66 26.089 L 66 26.089 C 66 28.799 63.774 31 61.032 31 L 59.834 31 L 59.834 46.016 L 71.998 73.274 C 73.655 76.986 71.7 80 67.635 80 L 31.365 80 C 27.3 80 25.476 77.048 27.295 73.413 L 41 46.016 L 41 31 L 39.963 31 C 37.221 31 34.995 28.799 34.995 26.089 L 34.995 26.089 C 34.995 23.378 37.221 21.177 39.963 21.177 Z " fill="rgb(92,225,230)" mask="url(#_mask_lBhsaV090Wm6wdTq8yrbif9A7m5oRnKh)" vector-effect="non-scaling-stroke" stroke-width="2" stroke="rgb(135,115,240)" stroke-linejoin="miter" stroke-linecap="square" stroke-miterlimit="3"/></clipPath><g clip-path="url(#_clipPath_RpjYkwXCjO8Mw2ON5iW4CVCnWft6vnUA)"><mask id="_mask_dByrlsnTkt1ued1mL9VqmnxiZeBrEVDY"><ellipse vector-effect="non-scaling-stroke" cx="35.98418024928091" cy="72.91129032258064" rx="10.015819750719082" ry="9.911290322580644" fill="white" stroke="none"/></mask><ellipse vector-effect="non-scaling-stroke" cx="35.98418024928091" cy="72.91129032258064" rx="10.015819750719082" ry="9.911290322580644" fill="rgb(135,115,240)"/><ellipse vector-effect="non-scaling-stroke" cx="35.98418024928091" cy="72.91129032258064" rx="10.015819750719082" ry="9.911290322580644" fill="rgb(135,115,240)" mask="url(#_mask_dByrlsnTkt1ued1mL9VqmnxiZeBrEVDY)" stroke-width="2" stroke="rgb(135,115,240)" stroke-linejoin="miter" stroke-linecap="butt" stroke-miterlimit="3"/><mask id="_mask_sp3JLbIXjXgUtHRo4ZxHZNizj1qspD4p"><ellipse vector-effect="non-scaling-stroke" cx="49.999999999999986" cy="71.91129032258064" rx="10.015819750719082" ry="9.911290322580644" fill="white" stroke="none"/></mask><ellipse vector-effect="non-scaling-stroke" cx="49.999999999999986" cy="71.91129032258064" rx="10.015819750719082" ry="9.911290322580644" fill="rgb(135,115,240)"/><ellipse vector-effect="non-scaling-stroke" cx="49.999999999999986" cy="71.91129032258064" rx="10.015819750719082" ry="9.911290322580644" fill="rgb(135,115,240)" mask="url(#_mask_sp3JLbIXjXgUtHRo4ZxHZNizj1qspD4p)" stroke-width="2" stroke="rgb(135,115,240)" stroke-linejoin="miter" stroke-linecap="butt" stroke-miterlimit="3"/><mask id="_mask_KxPuq9nc1GMwMkLnEMXfhnV0lIhND6C5"><ellipse vector-effect="non-scaling-stroke" cx="63.01581975071907" cy="71.91129032258064" rx="10.015819750719082" ry="9.911290322580644" fill="white" stroke="none"/></mask><ellipse vector-effect="non-scaling-stroke" cx="63.01581975071907" cy="71.91129032258064" rx="10.015819750719082" ry="9.911290322580644" fill="rgb(135,115,240)"/><ellipse vector-effect="non-scaling-stroke" cx="63.01581975071907" cy="71.91129032258064" rx="10.015819750719082" ry="9.911290322580644" fill="rgb(135,115,240)" mask="url(#_mask_KxPuq9nc1GMwMkLnEMXfhnV0lIhND6C5)" stroke-width="2" stroke="rgb(135,115,240)" stroke-linejoin="miter" stroke-linecap="butt" stroke-miterlimit="3"/><mask id="_mask_VSWBLAhbljC0QoCCLlftwQINFRjdYXX3"><ellipse vector-effect="non-scaling-stroke" cx="39.984180249280904" cy="60" rx="10.015819750719082" ry="9.911290322580644" fill="white" stroke="none"/></mask><ellipse vector-effect="non-scaling-stroke" cx="39.984180249280904" cy="60" rx="10.015819750719082" ry="9.911290322580644" fill="rgb(135,115,240)"/><ellipse vector-effect="non-scaling-stroke" cx="39.984180249280904" cy="60" rx="10.015819750719082" ry="9.911290322580644" fill="rgb(135,115,240)" mask="url(#_mask_VSWBLAhbljC0QoCCLlftwQINFRjdYXX3)" stroke-width="2" stroke="rgb(135,115,240)" stroke-linejoin="miter" stroke-linecap="butt" stroke-miterlimit="3"/><mask id="_mask_Gf3xSPvmT19vnpxIy3f9uI0SjEtt6Foc"><ellipse vector-effect="non-scaling-stroke" cx="58.01581975071906" cy="52.06783681214421" rx="8.015819750719075" ry="7.932163187855792" fill="white" stroke="none"/></mask><ellipse vector-effect="non-scaling-stroke" cx="58.01581975071906" cy="52.06783681214421" rx="8.015819750719075" ry="7.932163187855792" fill="rgb(135,115,240)"/><ellipse vector-effect="non-scaling-stroke" cx="58.01581975071906" cy="52.06783681214421" rx="8.015819750719075" ry="7.932163187855792" fill="rgb(135,115,240)" mask="url(#_mask_Gf3xSPvmT19vnpxIy3f9uI0SjEtt6Foc)" stroke-width="2" stroke="rgb(135,115,240)" stroke-linejoin="miter" stroke-linecap="butt" stroke-miterlimit="3"/><mask id="_mask_4e24XsufvM8ueW5AAZt9ULus9r87iIQI"><ellipse vector-effect="non-scaling-stroke" cx="47.50790987535953" cy="38.70090132827322" rx="5.49209012464047" ry="5.434772296015183" fill="white" stroke="none"/></mask><ellipse vector-effect="non-scaling-stroke" cx="47.50790987535953" cy="38.70090132827322" rx="5.49209012464047" ry="5.434772296015183" fill="rgb(135,115,240)"/><ellipse vector-effect="non-scaling-stroke" cx="47.50790987535953" cy="38.70090132827322" rx="5.49209012464047" ry="5.434772296015183" fill="rgb(135,115,240)" mask="url(#_mask_4e24XsufvM8ueW5AAZt9ULus9r87iIQI)" stroke-width="2" stroke="rgb(135,115,240)" stroke-linejoin="miter" stroke-linecap="butt" stroke-miterlimit="3"/><mask id="_mask_MoyefwMm16ghjPxSYAMUrfNWxb2DYfGT"><ellipse vector-effect="non-scaling-stroke" cx="53.484180249280925" cy="33.266129032258036" rx="3.4841802492809393" ry="3.447817836812158" fill="white" stroke="none"/></mask><ellipse vector-effect="non-scaling-stroke" cx="53.484180249280925" cy="33.266129032258036" rx="3.4841802492809393" ry="3.447817836812158" fill="rgb(135,115,240)"/><ellipse vector-effect="non-scaling-stroke" cx="53.484180249280925" cy="33.266129032258036" rx="3.4841802492809393" ry="3.447817836812158" fill="rgb(135,115,240)" mask="url(#_mask_MoyefwMm16ghjPxSYAMUrfNWxb2DYfGT)" stroke-width="2" stroke="rgb(135,115,240)" stroke-linejoin="miter" stroke-linecap="butt" stroke-miterlimit="3"/></g><path d=" M 39.963 21.177 L 61.032 21.177 C 63.774 21.177 66 23.378 66 26.089 L 66 26.089 C 66 28.799 63.774 31 61.032 31 L 59.834 31 L 59.834 46.016 L 71.998 73.274 C 73.655 76.986 71.7 80 67.635 80 L 31.365 80 C 27.3 80 25.476 77.048 27.295 73.413 L 41 46.016 L 41 31 L 39.963 31 C 37.221 31 34.995 28.799 34.995 26.089 L 34.995 26.089 C 34.995 23.378 37.221 21.177 39.963 21.177 Z " fill="transparent" mask="url(#_mask_lBhsaV090Wm6wdTq8yrbif9A7m5oRnKh)" vector-effect="non-scaling-stroke" stroke-width="2" stroke="rgb(135,115,240)" stroke-linejoin="miter" stroke-linecap="square" stroke-miterlimit="3"/></g></svg>